<svg id="Layer_1" enable-background="new 0 0 512.002 512.002" height="512" viewBox="0 0 512.002 512.002" width="512" xmlns="http://www.w3.org/2000/svg"><g><g clip-rule="evenodd" fill-rule="evenodd"><path d="m323.916 158.942c51.617 20.622 72.085 38.081 72.085 97.059 0 43.451-19.795 82.279-50.858 107.957-30.496 25.209-41.8-1.327-67.546 2.873-28.651 4.673-40.248 48.976-104.143 2.256-22.84-16.7-11.604-38.854-21.409-55.909-11.796-20.519-36.044-16.81-36.044-57.178 0-77.32 62.68-140 140-140 40.843.001 37.678 30.862 67.915 42.942zm112.085 97.059c0-99.411-80.588-180-180-180s-180 80.588-180 180c0 99.411 80.588 180 180 180s180-80.589 180-180z" fill="#b8ecbc"/><path d="m396.001 256.001c0-58.977-20.469-76.437-72.085-97.059-30.236-12.08-27.072-42.941-67.915-42.941-77.32 0-140 62.68-140 140 0 40.367 24.247 36.659 36.044 57.178 9.805 17.055-1.431 39.209 21.409 55.909 63.895 46.72 75.493 2.417 104.143-2.256 25.746-4.199 37.051 22.337 67.546-2.873 31.063-25.679 50.858-64.507 50.858-107.958z" fill="#eaf5bc"/></g><g><path d="m327.625 149.655c-10.124-4.044-15.552-10.594-21.837-18.177-9.897-11.942-21.114-25.477-49.788-25.477-23.513 0-46.042 5.299-66.959 15.751-4.94 2.469-6.944 8.475-4.476 13.416 2.468 4.94 8.473 6.946 13.415 4.476 18.117-9.052 37.638-13.642 58.02-13.642 19.272 0 25.613 7.65 34.389 18.239 7.013 8.462 14.962 18.054 29.816 23.988 50.173 20.044 65.795 34.766 65.795 87.772 0 38.898-17.214 75.438-47.229 100.25-14.468 11.96-21.356 9.417-32.766 5.203-7.856-2.902-17.633-6.513-30.019-4.492-10.431 1.702-18.437 7.128-26.178 12.376-16.448 11.15-30.652 20.78-70.453-8.322-10.435-7.63-11.195-15.952-12.247-27.47-.724-7.928-1.544-16.914-6.395-25.351-5.166-8.986-12.037-14.103-18.1-18.617-9.645-7.182-16.613-12.372-16.613-33.577 0-20.385 4.589-39.903 13.64-58.015 2.469-4.94.465-10.946-4.475-13.416-4.939-2.469-10.947-.465-13.416 4.475-10.451 20.912-15.75 43.439-15.75 66.955 0 31.248 13.678 41.434 24.668 49.618 5.155 3.839 9.607 7.154 12.706 12.544 2.67 4.644 3.202 10.463 3.817 17.201 1.173 12.847 2.633 28.834 20.359 41.796 21.538 15.748 39.261 23.152 55.526 23.151.764 0 1.526-.016 2.284-.049 15.453-.665 26.193-7.946 35.67-14.37 6.491-4.4 12.097-8.2 18.176-9.192 7.184-1.171 13.062 1 19.869 3.514 12.962 4.789 29.097 10.747 52.438-8.548 34.627-28.625 54.486-70.783 54.486-115.665.003-64.199-24.175-84.692-78.373-106.345z"/><path d="m502.002 250.333c-1.416 0-1.77-.18-4.213-2.137-3.245-2.6-8.149-6.528-16.717-6.528-8.569 0-13.473 3.929-16.718 6.528-2.443 1.957-2.797 2.137-4.213 2.137s-1.77-.18-4.213-2.137c-2.347-1.88-5.571-4.449-10.413-5.73-1.849-26.145-9.003-50.848-20.404-73.029 3.909.406 9 .282 14.847-3.094 7.42-4.285 9.703-10.138 11.214-14.012 1.137-2.917 1.354-3.25 2.58-3.957 1.226-.708 1.623-.729 4.718-.256 4.109.629 10.321 1.579 17.742-2.706 4.783-2.761 6.421-8.877 3.66-13.66s-8.878-6.422-13.66-3.66c-1.226.708-1.623.729-4.718.256-4.109-.629-10.321-1.579-17.742 2.706-7.419 4.285-9.702 10.138-11.212 14.012-1.138 2.917-1.354 3.25-2.581 3.958-1.225.708-1.622.73-4.718.256-2.985-.456-7.083-1.073-11.942.26-14.319-21.089-32.766-39.156-54.168-53.041 3.596-1.601 7.964-4.251 11.353-10.122 4.284-7.42 3.334-13.631 2.706-17.742-.474-3.095-.452-3.491.256-4.717s1.041-1.443 3.957-2.58c3.874-1.51 9.729-3.793 14.013-11.214 2.761-4.783 1.122-10.899-3.661-13.66-4.782-2.763-10.899-1.123-13.66 3.661-.708 1.226-1.041 1.443-3.958 2.58-3.874 1.51-9.728 3.793-14.012 11.213s-3.334 13.631-2.706 17.742c.474 3.095.452 3.491-.256 4.717s-1.041 1.443-3.958 2.581c-2.806 1.094-6.648 2.604-10.183 6.167-22.38-10.917-47.206-17.57-73.417-18.882 2.301-3.181 4.728-7.646 4.728-14.381 0-8.568-3.928-13.472-6.528-16.717-1.958-2.443-2.137-2.798-2.137-4.213s.18-1.77 2.137-4.213c2.6-3.245 6.528-8.149 6.528-16.717 0-5.523-4.477-10-10-10s-10 4.477-10 10c0 1.416-.18 1.77-2.137 4.213-2.6 3.245-6.528 8.149-6.528 16.718 0 8.568 3.928 13.472 6.528 16.717 1.958 2.443 2.137 2.798 2.137 4.213s-.18 1.77-2.137 4.213c-1.88 2.347-4.449 5.572-5.73 10.414-26.145 1.849-50.848 9.003-73.029 20.404.406-3.909.283-9-3.093-14.848-4.284-7.42-10.138-9.703-14.012-11.213-2.917-1.138-3.25-1.354-3.958-2.581-.708-1.226-.729-1.623-.256-4.717.628-4.11 1.579-10.321-2.706-17.742-2.762-4.783-8.877-6.422-13.66-3.66-4.783 2.761-6.421 8.877-3.66 13.66.708 1.226.729 1.623.256 4.718-.628 4.11-1.579 10.321 2.706 17.741s10.138 9.703 14.012 11.213c2.917 1.138 3.25 1.354 3.957 2.58.708 1.226.729 1.623.256 4.718-.457 2.985-1.073 7.083.26 11.943-21.089 14.319-39.156 32.766-53.041 54.167-1.601-3.596-4.251-7.965-10.121-11.354-7.421-4.284-13.632-3.334-17.742-2.706-3.095.473-3.492.452-4.717-.256-1.226-.708-1.443-1.041-2.581-3.958-1.511-3.874-3.793-9.728-11.214-14.012-4.783-2.761-10.899-1.123-13.66 3.661-2.761 4.783-1.123 10.899 3.661 13.66 1.226.708 1.443 1.041 2.58 3.958 1.511 3.874 3.793 9.728 11.214 14.012 7.421 4.285 13.632 3.334 17.741 2.706 3.096-.473 3.492-.452 4.718.256s1.443 1.041 2.581 3.958c1.094 2.805 2.604 6.648 6.167 10.183-10.918 22.38-17.571 47.205-18.882 73.417-3.181-2.301-7.646-4.728-14.381-4.728-8.568 0-13.472 3.928-16.717 6.528-2.443 1.958-2.798 2.137-4.213 2.137s-1.77-.18-4.213-2.137c-3.245-2.6-8.149-6.528-16.718-6.528-5.523 0-10 4.477-10 10s4.477 10 10 10c1.416 0 1.77.18 4.213 2.137 3.245 2.6 8.149 6.528 16.717 6.528 8.569 0 13.473-3.929 16.718-6.528 2.443-1.957 2.797-2.137 4.213-2.137s1.77.18 4.213 2.137c2.347 1.88 5.572 4.449 10.414 5.73 1.849 26.146 9.003 50.849 20.404 73.03-3.909-.406-9-.283-14.847 3.093-7.421 4.284-9.704 10.138-11.214 14.012-1.137 2.917-1.354 3.25-2.58 3.958s-1.623.729-4.718.256c-4.109-.629-10.321-1.579-17.742 2.706-4.783 2.761-6.421 8.877-3.66 13.66 1.852 3.208 5.213 5.002 8.669 5.001 1.696 0 3.416-.432 4.991-1.341 1.226-.708 1.623-.729 4.718-.256 4.11.629 10.321 1.579 17.742-2.706s9.703-10.138 11.213-14.012c1.137-2.917 1.354-3.25 2.581-3.958 1.228-.708 1.625-.729 4.718-.256 2.985.457 7.083 1.073 11.943-.26 14.319 21.089 32.766 39.156 54.167 53.041-3.596 1.601-7.965 4.252-11.354 10.122-4.284 7.42-3.334 13.631-2.706 17.741.474 3.095.452 3.491-.256 4.717s-1.041 1.443-3.958 2.581c-3.874 1.511-9.728 3.793-14.012 11.214-2.761 4.783-1.123 10.899 3.66 13.66 1.575.909 3.294 1.341 4.991 1.341 3.456 0 6.817-1.793 8.669-5.001.708-1.226 1.041-1.443 3.958-2.581 3.874-1.511 9.728-3.793 14.012-11.214s3.334-13.631 2.706-17.741c-.474-3.095-.452-3.491.256-4.717s1.041-1.443 3.958-2.581c2.805-1.094 6.648-2.604 10.182-6.167 22.38 10.918 47.206 17.571 73.417 18.882-2.301 3.181-4.728 7.646-4.728 14.381 0 8.568 3.928 13.472 6.528 16.717 1.958 2.443 2.137 2.798 2.137 4.213s-.18 1.77-2.137 4.213c-2.6 3.245-6.528 8.149-6.528 16.717 0 5.523 4.477 10 10 10s10-4.477 10-10c0-1.416.18-1.77 2.137-4.213 2.6-3.245 6.528-8.149 6.528-16.717s-3.928-13.472-6.528-16.717c-1.958-2.443-2.137-2.798-2.137-4.213s.18-1.77 2.137-4.213c1.88-2.347 4.449-5.572 5.73-10.414 26.145-1.849 50.849-9.003 73.03-20.403-.406 3.909-.283 9 3.093 14.847 4.284 7.42 10.138 9.703 14.012 11.213 2.917 1.137 3.25 1.354 3.958 2.58s.729 1.623.256 4.718c-.628 4.11-1.579 10.321 2.706 17.742 1.852 3.208 5.213 5.001 8.669 5.001 1.696 0 3.416-.432 4.991-1.341 4.783-2.761 6.421-8.877 3.66-13.66-.708-1.226-.729-1.623-.256-4.718.628-4.11 1.579-10.321-2.706-17.742-4.284-7.42-10.139-9.703-14.012-11.213-2.917-1.137-3.25-1.354-3.957-2.58-.708-1.226-.729-1.623-.256-4.718.456-2.985 1.072-7.083-.26-11.943 21.089-14.319 39.156-32.766 53.041-54.167 1.601 3.596 4.252 7.964 10.122 11.353 7.42 4.284 13.631 3.334 17.741 2.706 3.095-.473 3.492-.452 4.717.256 1.226.708 1.443 1.041 2.581 3.958 1.511 3.874 3.793 9.728 11.214 14.012 1.575.909 3.294 1.341 4.991 1.341 3.456 0 6.817-1.793 8.669-5.001 2.761-4.783 1.123-10.899-3.66-13.66-1.226-.708-1.443-1.041-2.581-3.958-1.511-3.874-3.793-9.728-11.214-14.012-7.421-4.285-13.631-3.334-17.741-2.706-3.097.475-3.492.452-4.717-.256-1.226-.708-1.443-1.041-2.581-3.958-1.094-2.805-2.604-6.648-6.166-10.182 10.918-22.38 17.571-47.206 18.882-73.417 3.181 2.301 7.646 4.728 14.381 4.728 8.568 0 13.472-3.928 16.717-6.528 2.443-1.958 2.798-2.137 4.213-2.137s1.77.18 4.213 2.137c3.245 2.6 8.149 6.528 16.717 6.528 5.523 0 10-4.477 10-10s-4.478-10.002-10.001-10.002zm-246.001 175.668c-93.739 0-170-76.262-170-170s76.262-170 170-170 170 76.262 170 170-76.261 170-170 170z"/><path d="m255.908 182.974h-.008c-5.523 0-9.997 4.477-9.997 10s4.481 10 10.004 10 10-4.477 10-10-4.476-10-9.999-10z"/><path d="m200.161 256.72h-.007c-5.523 0-9.997 4.477-9.997 10s4.481 10 10.004 10 10-4.477 10-10-4.477-10-10-10z"/><path d="m327.159 205.721h-.007c-5.523 0-9.997 4.477-9.997 10s4.481 10 10.004 10 10-4.477 10-10-4.477-10-10-10z"/><path d="m274.654 306.221c-5.523 0-9.997 4.477-9.997 10s4.481 10 10.004 10 10-4.477 10-10-4.477-10-10-10z"/><path d="m274.652 241.722h-.007c-5.523 0-9.997 4.477-9.997 10s4.481 10 10.004 10 10-4.477 10-10-4.477-10-10-10z"/><path d="m329.648 286.721c0 5.523 4.481 10 10.004 10s10-4.477 10-10-4.477-10-10-10h-.007c-5.523 0-9.997 4.477-9.997 10z"/><path d="m198.648 336.221c0 5.523 4.481 10 10.004 10s10-4.477 10-10-4.477-10-10-10h-.007c-5.523 0-9.997 4.477-9.997 10z"/><path d="m194.415 196.974h-.007c-5.523 0-9.997 4.477-9.997 10s4.481 10 10.004 10 10-4.477 10-10-4.477-10-10-10z"/><path d="m157.006 167.006c5.523 0 10-4.477 10-10s-4.477-10-10-10h-.007c-5.523 0-9.996 4.477-9.996 10s4.48 10 10.003 10z"/></g></g></svg>